<svg width="96" height="33" viewBox="0 0 96 33" fill="none" xmlns="http://www.w3.org/2000/svg">
<rect x="0.3" y="1.3" width="95.4" height="31.4" rx="7.7" fill="#FAFBFD" stroke="#D5D5D5" stroke-width="0.6"/>
<g opacity="0.6">
<path fill-rule="evenodd" clip-rule="evenodd" d="M24.6967 18.424L22.222 18.778L22.5754 16.3027L28.9394 9.93867C29.5252 9.35288 30.4749 9.35288 31.0607 9.93867C31.6465 10.5245 31.6465 11.4742 31.0607 12.06L24.6967 18.424Z" stroke="black" stroke-width="1.2" stroke-linecap="round" stroke-linejoin="round"/>
<path d="M28.2321 10.646L30.3534 12.7673" stroke="black" stroke-width="1.2" stroke-linecap="round" stroke-linejoin="round"/>
<path d="M28.5 18.5V23.5C28.5 24.0523 28.0523 24.5 27.5 24.5H17.5C16.9477 24.5 16.5 24.0523 16.5 23.5V13.5C16.5 12.9477 16.9477 12.5 17.5 12.5H22.5" stroke="black" stroke-width="1.2" stroke-linecap="round" stroke-linejoin="round"/>
</g>
<path fill-rule="evenodd" clip-rule="evenodd" d="M76.1999 24.4H67.7999C67.1371 24.4 66.5999 23.8627 66.5999 23.2V12.4H77.3999V23.2C77.3999 23.8627 76.8626 24.4 76.1999 24.4Z" stroke="#EF3826" stroke-width="1.2" stroke-linecap="round" stroke-linejoin="round"/>
<path d="M70.2 20.8V16" stroke="#EF3826" stroke-width="1.2" stroke-linecap="round" stroke-linejoin="round"/>
<path d="M73.7999 20.8V16" stroke="#EF3826" stroke-width="1.2" stroke-linecap="round" stroke-linejoin="round"/>
<path d="M64.2 12.4H79.8" stroke="#EF3826" stroke-width="1.2" stroke-linecap="round" stroke-linejoin="round"/>
<path fill-rule="evenodd" clip-rule="evenodd" d="M73.8 10H70.2C69.5373 10 69 10.5373 69 11.2V12.4H75V11.2C75 10.5373 74.4627 10 73.8 10Z" stroke="#EF3826" stroke-width="1.2" stroke-linecap="round" stroke-linejoin="round"/>
<path opacity="0.700544" d="M48.5 32.7641V1" stroke="#979797" stroke-width="0.4" stroke-linecap="square"/>
</svg>
