<svg width="20" height="29" viewBox="0 0 20 29" fill="none" xmlns="http://www.w3.org/2000/svg">
<path d="M5.53953 5.42912C5.53953 5.79365 5.32969 6.0892 5.07078 6.0892H1.99945C1.6602 6.0892 1.38418 6.4496 1.38418 6.89251V11.0389C1.38418 11.4034 1.1743 11.699 0.91543 11.699C0.656523 11.699 0.44668 11.4034 0.44668 11.0389V6.89251C0.44668 5.72164 1.14324 4.76904 1.99945 4.76904H5.07082C5.32969 4.76904 5.53953 5.06459 5.53953 5.42912ZM19.0846 17.8932C18.8257 17.8932 18.6158 18.1888 18.6158 18.5533V22.6997C18.6158 23.1427 18.3398 23.5031 18.0006 23.5031H14.9292C14.6703 23.5031 14.4604 23.7986 14.4604 24.1631C14.4604 24.5277 14.6703 24.8232 14.9292 24.8232H18.0006C18.8568 24.8232 19.5533 23.8707 19.5533 22.6997V18.5533C19.5533 18.1888 19.3435 17.8932 19.0846 17.8932ZM4.9757 23.503H1.90434C1.56504 23.503 1.28906 23.1427 1.28906 22.6997V18.5533C1.28906 18.1887 1.07922 17.8932 0.820312 17.8932C0.561406 17.8932 0.351562 18.1887 0.351562 18.5533V22.6997C0.351562 23.8706 1.04812 24.8232 1.90434 24.8232H4.9757C5.23461 24.8232 5.44445 24.5276 5.44445 24.1631C5.44445 23.7986 5.23461 23.503 4.9757 23.503ZM18.0957 4.76904H15.0243C14.7654 4.76904 14.5555 5.06459 14.5555 5.42912C14.5555 5.79365 14.7654 6.0892 15.0243 6.0892H18.0957C18.435 6.0892 18.7109 6.4496 18.7109 6.89251V11.0389C18.7109 11.4034 18.9208 11.699 19.1797 11.699C19.4386 11.699 19.6484 11.4034 19.6484 11.0389V6.89251C19.6484 5.72164 18.9519 4.76904 18.0957 4.76904ZM4.43691 18.3603V11.4453C4.43691 11.0807 4.22707 10.7852 3.96816 10.7852C3.70926 10.7852 3.49941 11.0807 3.49941 11.4453V18.3603C3.49941 18.7249 3.70926 19.0204 3.96816 19.0204C4.22707 19.0204 4.43691 18.7249 4.43691 18.3603ZM7.98938 10.7852C7.73047 10.7852 7.52063 11.0807 7.52063 11.4453V18.3603C7.52063 18.7249 7.73047 19.0204 7.98938 19.0204C8.24828 19.0204 8.45813 18.7249 8.45813 18.3603V11.4453C8.45813 11.0807 8.24828 10.7852 7.98938 10.7852ZM12.0106 10.7852C11.7517 10.7852 11.5419 11.0807 11.5419 11.4453V18.3603C11.5419 18.7249 11.7517 19.0204 12.0106 19.0204C12.2695 19.0204 12.4794 18.7249 12.4794 18.3603V11.4453C12.4794 11.0807 12.2695 10.7852 12.0106 10.7852ZM16.5006 18.3603V11.4453C16.5006 11.0807 16.2907 10.7852 16.0318 10.7852C15.7729 10.7852 15.5631 11.0807 15.5631 11.4453V18.3603C15.5631 18.7249 15.7729 19.0204 16.0318 19.0204C16.2907 19.0204 16.5006 18.7249 16.5006 18.3603Z" fill="#F76B56"/>
</svg>
