<svg width="25" height="12" viewBox="0 0 25 12" fill="none" xmlns="http://www.w3.org/2000/svg">
<path d="M2.66667 1.33301C1.74767 1.33301 1 2.08068 1 2.99968V8.99968C1 9.91868 1.74767 10.6663 2.66667 10.6663H19.3333C20.2523 10.6663 21 9.91868 21 8.99968V2.99968C21 2.08068 20.2523 1.33301 19.3333 1.33301H2.66667ZM2.66667 0.333008H19.3333C20.8061 0.333008 22 1.52692 22 2.99968V8.99968C22 10.4724 20.8061 11.6663 19.3333 11.6663H2.66667C1.19391 11.6663 0 10.4724 0 8.99968V2.99968C0 1.52692 1.19391 0.333008 2.66667 0.333008Z" fill="#ACACAC"/>
<path opacity="0.4" d="M23 4V8C23.3936 7.8343 23.7295 7.55614 23.9658 7.20038C24.202 6.84461 24.328 6.42705 24.328 6C24.328 5.57295 24.202 5.15539 23.9658 4.79962C23.7295 4.44386 23.3936 4.1657 23 4" fill="white"/>
<path d="M18.667 2.33301H3.333C2.5968 2.33301 2 2.92981 2 3.66601V8.33301C2 9.0692 2.5968 9.66601 3.333 9.66601H18.667C19.4032 9.66601 20 9.0692 20 8.33301V3.66601C20 2.92981 19.4032 2.33301 18.667 2.33301Z" fill="white"/>
</svg>
