<svg width="25" height="13" viewBox="0 0 25 13" fill="none" xmlns="http://www.w3.org/2000/svg">
<path d="M2.66667 1.63266C1.74767 1.63266 1 2.43334 1 3.41749V9.84287C1 10.827 1.74767 11.6277 2.66667 11.6277H19.3333C20.2523 11.6277 21 10.827 21 9.84287V3.41749C21 2.43334 20.2523 1.63266 19.3333 1.63266H2.66667ZM2.66667 0.561768H19.3333C20.8061 0.561768 22 1.84032 22 3.41749V9.84287C22 11.42 20.8061 12.6986 19.3333 12.6986H2.66667C1.19391 12.6986 0 11.42 0 9.84287V3.41749C0 1.84032 1.19391 0.561768 2.66667 0.561768Z" fill="#ACACAC"/>
<path opacity="0.4" d="M23 4.48877V8.77235C23.3936 8.5949 23.7295 8.29703 23.9658 7.91604C24.202 7.53505 24.328 7.08789 24.328 6.63056C24.328 6.17323 24.202 5.72607 23.9658 5.34508C23.7295 4.9641 23.3936 4.66622 23 4.48877" fill="white"/>
<path d="M18.667 2.70361H3.333C2.5968 2.70361 2 3.34273 2 4.13112V9.12899C2 9.91738 2.5968 10.5565 3.333 10.5565H18.667C19.4032 10.5565 20 9.91738 20 9.12899V4.13112C20 3.34273 19.4032 2.70361 18.667 2.70361Z" fill="white"/>
</svg>
