<svg width="18" height="12" viewBox="0 0 18 12" fill="none" xmlns="http://www.w3.org/2000/svg">
<path d="M16.667 11.334H15.667C15.4018 11.334 15.1474 11.2286 14.9599 11.0411C14.7723 10.8536 14.667 10.5992 14.667 10.334V1.66699C14.667 1.40178 14.7723 1.14742 14.9599 0.959885C15.1474 0.772349 15.4018 0.666992 15.667 0.666992H16.667C16.9322 0.666992 17.1866 0.772349 17.3741 0.959885C17.5616 1.14742 17.667 1.40178 17.667 1.66699V10.334C17.667 10.5992 17.5616 10.8536 17.3741 11.0411C17.1866 11.2286 16.9322 11.334 16.667 11.334ZM12 11.334H11C10.7348 11.334 10.4804 11.2286 10.2929 11.0411C10.1053 10.8536 9.99999 10.5992 9.99999 10.334V4.00099C9.99999 3.73578 10.1053 3.48142 10.2929 3.29389C10.4804 3.10635 10.7348 3.00099 11 3.00099H12C12.2652 3.00099 12.5196 3.10635 12.7071 3.29389C12.8946 3.48142 13 3.73578 13 4.00099V10.334C13 10.599 12.8948 10.8532 12.7075 11.0407C12.5201 11.2283 12.266 11.3337 12.001 11.334H12ZM7.33299 11.334H6.33299C6.06778 11.334 5.81342 11.2286 5.62589 11.0411C5.43835 10.8536 5.33299 10.5992 5.33299 10.334V6.33399C5.33299 6.06878 5.43835 5.81442 5.62589 5.62689C5.81342 5.43935 6.06778 5.33399 6.33299 5.33399H7.33299C7.59821 5.33399 7.85256 5.43935 8.0401 5.62689C8.22764 5.81442 8.33299 6.06878 8.33299 6.33399V10.334C8.33299 10.5992 8.22764 10.8536 8.0401 11.0411C7.85256 11.2286 7.59821 11.334 7.33299 11.334ZM2.66699 11.334H1.66699C1.40178 11.334 1.14742 11.2286 0.959885 11.0411C0.772349 10.8536 0.666992 10.5992 0.666992 10.334V8.33399C0.666992 8.06878 0.772349 7.81442 0.959885 7.62689C1.14742 7.43935 1.40178 7.33399 1.66699 7.33399H2.66699C2.93221 7.33399 3.18656 7.43935 3.3741 7.62689C3.56164 7.81442 3.66699 8.06878 3.66699 8.33399V10.334C3.66699 10.5992 3.56164 10.8536 3.3741 11.0411C3.18656 11.2286 2.93221 11.334 2.66699 11.334Z" fill="white"/>
</svg>
