<svg width="18" height="13" viewBox="0 0 18 13" fill="none" xmlns="http://www.w3.org/2000/svg">
<path d="M16.667 12.3427H15.667C15.4018 12.3427 15.1474 12.2298 14.9599 12.029C14.7723 11.8282 14.667 11.5558 14.667 11.2718V1.99033C14.667 1.70631 14.7723 1.43392 14.9599 1.23309C15.1474 1.03226 15.4018 0.919434 15.667 0.919434L16.667 0.919434C16.9322 0.919434 17.1866 1.03226 17.3741 1.23309C17.5616 1.43392 17.667 1.70631 17.667 1.99033V11.2718C17.667 11.5558 17.5616 11.8282 17.3741 12.029C17.1866 12.2298 16.9322 12.3427 16.667 12.3427ZM12 12.3427H11C10.7348 12.3427 10.4804 12.2298 10.2929 12.029C10.1053 11.8282 9.99999 11.5558 9.99999 11.2718V4.4898C9.99999 4.20578 10.1053 3.93339 10.2929 3.73256C10.4804 3.53173 10.7348 3.4189 11 3.4189H12C12.2652 3.4189 12.5196 3.53173 12.7071 3.73256C12.8946 3.93339 13 4.20578 13 4.4898V11.2718C13 11.5556 12.8948 11.8278 12.7075 12.0286C12.5201 12.2294 12.266 12.3424 12.001 12.3427H12ZM7.33299 12.3427H6.33299C6.06778 12.3427 5.81342 12.2298 5.62589 12.029C5.43835 11.8282 5.33299 11.5558 5.33299 11.2718V6.9882C5.33299 6.70418 5.43835 6.43179 5.62589 6.23096C5.81342 6.03013 6.06778 5.9173 6.33299 5.9173H7.33299C7.59821 5.9173 7.85256 6.03013 8.0401 6.23096C8.22764 6.43179 8.33299 6.70418 8.33299 6.9882V11.2718C8.33299 11.5558 8.22764 11.8282 8.0401 12.029C7.85256 12.2298 7.59821 12.3427 7.33299 12.3427ZM2.66699 12.3427H1.66699C1.40178 12.3427 1.14742 12.2298 0.959885 12.029C0.772349 11.8282 0.666992 11.5558 0.666992 11.2718V9.12999C0.666992 8.84597 0.772349 8.57358 0.959885 8.37275C1.14742 8.17192 1.40178 8.05909 1.66699 8.05909H2.66699C2.93221 8.05909 3.18656 8.17192 3.3741 8.37275C3.56164 8.57358 3.66699 8.84597 3.66699 9.12999V11.2718C3.66699 11.5558 3.56164 11.8282 3.3741 12.029C3.18656 12.2298 2.93221 12.3427 2.66699 12.3427Z" fill="white"/>
</svg>
