<svg width="24" height="24" viewBox="0 0 24 24" fill="none" xmlns="http://www.w3.org/2000/svg">
<path d="M12.2976 4.376L12 4.15554L11.7024 4.376L4.95239 9.376L4.75 9.52592V9.77778V19.7778V20.2778H5.25H18.75H19.25V19.7778V9.77778V9.52592L19.0476 9.376L12.2976 4.376ZM8.5625 9.72222H8.6875V12.5556V13.0556H9.1875H9.75H10.25V12.5556V9.72222H10.375V12.5556V13.0556H10.875H11.4375H11.9375V12.5556V9.72222H12.0625V12.5556C12.0625 13.1958 11.5385 13.7222 10.875 13.7222H10.375V14.2222V18.1667H10.25V14.2222V13.7222H9.75C9.08652 13.7222 8.5625 13.1958 8.5625 12.5556V9.72222ZM14.75 14.7778V14.2778H14.25H13.625V11.4444C13.625 10.6731 14.1518 10.0083 14.875 9.79433V18.1667H14.75V14.7778ZM20.5 8.91853V21.5H3.5V8.91853L12 2.62223L20.5 8.91853Z" fill="#191919" stroke="#525256"/>
</svg>
