<svg width="70" height="70" viewBox="0 0 70 70" fill="none" xmlns="http://www.w3.org/2000/svg">
<rect width="70" height="70" rx="10" fill="#F54F5F"/>
<g clip-path="url(#clip0_278_164)">
<path d="M45 39C41.6893 39 39 41.6867 39 45C39 48.3133 41.6893 51 45 51C48.3107 51 51 48.3133 51 45C51 41.6867 48.3107 39 45 39ZM48.3333 45.6667H45.6667V48.3333H44.3333V45.6667H41.6667V44.3333H44.3333V41.6667H45.6667V44.3333H48.3333V45.6667ZM38.76 51H19.0067L19 49.3453C19 45.9853 19.2653 44.0453 23.2373 43.128C27.724 42.092 32.1547 41.164 30.024 37.2373C23.7133 25.5987 28.224 19 35 19C44.0013 19 45.008 29.1267 39.8533 37.2387C38.1307 39.9467 36.3333 42.0787 36.3333 45C36.3333 47.3293 37.2613 49.4413 38.76 51Z" fill="white"/>
</g>
<defs>
<clipPath id="clip0_278_164">
<rect width="32" height="32" fill="white" transform="translate(19 19)"/>
</clipPath>
</defs>
</svg>
