<svg width="70" height="70" viewBox="0 0 70 70" fill="none" xmlns="http://www.w3.org/2000/svg">
<rect width="70" height="70" rx="10" fill="#FF8E29"/>
<g clip-path="url(#clip0_278_55)">
<path d="M32.3333 31V29.536L33.7293 23H36.2693L37.6667 29.5333V30.9973C37.6667 32.42 36.4227 33.6667 35 33.6667C33.5773 33.6667 32.3333 32.4227 32.3333 31ZM39 31C39 32.4227 40.2453 33.6667 41.668 33.6667C43.0907 33.6667 44.3333 32.556 44.3333 31.1333V29.6693L40.3387 23H37.748L39 29.536V31V31ZM25.6667 31.0907C25.6667 32.5133 26.9107 33.6667 28.3333 33.6667C29.756 33.6667 31 32.5133 31 31.0907V29.628L32.252 23H29.6613L25.6667 29.628V31.0907ZM20.3333 35H49.6667V51H20.3333V35ZM23 45.6667H47V37.6667H23V45.6667ZM24.3333 31.0907V29.628L28.1827 23H25.4973L19 29.628V31.092C19 32.5133 20.244 33.6667 21.6667 33.6667C23.0893 33.6667 24.3333 32.5133 24.3333 31.0907V31.0907ZM44.5027 23H41.8173L45.6667 29.536V31C45.6667 32.4227 46.9107 33.6667 48.3333 33.6667C49.756 33.6667 51 32.5133 51 31.0907V29.628L44.5027 23ZM44.3333 19H25.6667V21.6667H44.3333V19Z" fill="white"/>
</g>
<defs>
<clipPath id="clip0_278_55">
<rect width="32" height="32" fill="white" transform="translate(19 19)"/>
</clipPath>
</defs>
</svg>
