<svg width="21" height="21" viewBox="0 0 21 21" fill="none" xmlns="http://www.w3.org/2000/svg">
<g clip-path="url(#clip0_249_1423)">
<path d="M3.36656 12.1899H0.137812C0.065625 12.1899 0 12.249 0 12.3278V18.8312C0 18.9067 0.065625 18.969 0.137812 18.969H3.36328C3.44203 18.969 3.50109 18.9034 3.50109 18.8312V12.3278C3.50191 12.3097 3.49901 12.2917 3.49258 12.2748C3.48615 12.258 3.47632 12.2426 3.46371 12.2297C3.4511 12.2168 3.43597 12.2066 3.41926 12.1997C3.40255 12.1929 3.38461 12.1896 3.36656 12.1899ZM2.11641 18.3587C1.80469 18.3587 1.54875 18.1028 1.54875 17.791C1.54875 17.476 1.80469 17.2201 2.11641 17.2201C2.43141 17.2201 2.68734 17.476 2.68734 17.791C2.68734 18.1028 2.43141 18.3587 2.11641 18.3587ZM20.1305 14.8445L14.9625 16.5474C14.7623 16.7312 14.4998 16.8362 14.2308 16.8362H8.84953C8.80471 16.8362 8.76173 16.8184 8.73004 16.7867C8.69835 16.755 8.68055 16.712 8.68055 16.6672C8.68055 16.6224 8.69835 16.5794 8.73004 16.5477C8.76173 16.516 8.80471 16.4982 8.84953 16.4982H14.2308C14.4178 16.4982 14.5983 16.426 14.7361 16.3014C14.7459 16.2882 14.7591 16.2784 14.7722 16.2653C14.9002 16.1307 14.9723 15.947 14.9723 15.7534C14.9723 15.3432 14.6409 15.0085 14.2308 15.0085H10.5164C10.418 15.0085 10.3327 14.9725 10.2638 14.897C8.6625 13.0792 5.72906 12.8035 4.12125 12.8035C4.02281 12.8035 3.92766 12.8068 3.83906 12.8068V18.1028L8.77734 19.786C9.94547 20.1831 11.1956 20.2881 12.4261 20.0682C13.2088 19.9319 13.9644 19.6704 14.6639 19.2939L20.6555 16.0389C20.8687 15.924 20.9967 15.7042 20.9967 15.4646C20.9967 15.3662 20.977 15.2743 20.9311 15.1857C20.8636 15.0398 20.7444 14.9241 20.5965 14.861C20.4485 14.798 20.2825 14.7921 20.1305 14.8445ZM8.72484 3.69151L8.70187 5.28948C8.70187 5.30589 8.71172 5.31573 8.72484 5.31573H20.9803C20.9902 5.31573 21 5.30589 21 5.28948V3.7112L8.72484 3.69151ZM13.9388 12.9085V5.64714H9.30562V12.7379C9.30562 12.8331 9.38109 12.9118 9.47625 12.9118H13.9388V12.9085ZM20.3995 12.7379V5.64714H15.7631V12.9085H20.2289C20.3208 12.9085 20.3995 12.8298 20.3995 12.7379ZM14.2734 5.64714H15.4317V12.9085H14.2734V5.64714ZM12.9511 3.30104L13.7222 3.55698H15.8452L16.6195 3.30104C16.826 3.23345 17.0116 3.11365 17.1582 2.95326C17.3048 2.79286 17.4075 2.59732 17.4563 2.38558C17.5613 1.95573 17.4333 1.50948 17.1183 1.1912C16.8787 0.948389 16.5605 0.817139 16.2225 0.817139C16.1208 0.817139 16.0223 0.830264 15.9239 0.853232C15.7122 0.90209 15.5167 1.00478 15.3563 1.15137C15.1959 1.29796 15.0761 1.48347 15.0084 1.68995L14.7886 2.35604L14.5655 1.68995C14.4178 1.26667 14.0766 0.95167 13.6434 0.853232C13.4321 0.801614 13.211 0.805614 13.0017 0.864843C12.7924 0.924072 12.602 1.03651 12.4491 1.1912C12.1341 1.5062 12.0061 1.95245 12.1078 2.38558C12.1586 2.59745 12.2627 2.79282 12.4103 2.95306C12.5579 3.11331 12.7441 3.23311 12.9511 3.30104ZM15.7041 1.92292C15.7631 1.74573 15.9075 1.61448 16.088 1.57183C16.1306 1.56198 16.1733 1.55542 16.2127 1.55542C16.3538 1.55542 16.4883 1.6112 16.5867 1.71292C16.718 1.84089 16.7738 2.0312 16.7311 2.21167C16.6852 2.39542 16.5539 2.53979 16.3767 2.59886L15.3595 2.93683L15.7041 1.92292ZM12.9708 1.7162C13.0725 1.61448 13.207 1.5587 13.3481 1.5587C13.3908 1.5587 13.4334 1.56526 13.4761 1.57511C13.6566 1.61776 13.8009 1.74901 13.86 1.9262L14.198 2.94339L13.1808 2.60542C13.0036 2.54636 12.8723 2.40198 12.8264 2.22151C12.787 2.03448 12.8395 1.84745 12.9708 1.7162Z" fill="#926CFF"/>
</g>
<defs>
<clipPath id="clip0_249_1423">
<rect width="21" height="21" fill="white"/>
</clipPath>
</defs>
</svg>
