<svg width="66" height="61" viewBox="0 0 66 61" fill="none" xmlns="http://www.w3.org/2000/svg">
<mask id="path-1-inside-1_75_4373" fill="white">
<path d="M0 0H61C63.7614 0 66 2.23858 66 5V56C66 58.7614 63.7614 61 61 61H0V0Z"/>
</mask>
<path d="M0 0H61C63.7614 0 66 2.23858 66 5V56C66 58.7614 63.7614 61 61 61H0V0Z" fill="#41B64D"/>
<path d="M0 0H66H0ZM66 61H0H66ZM-1 61V0H1V61H-1ZM66 0V61V0Z" fill="white" mask="url(#path-1-inside-1_75_4373)"/>
<g clip-path="url(#clip0_75_4373)">
<path d="M40.3125 33.104H38.2292C37.6539 33.104 37.1875 33.5704 37.1875 34.1457V41.4373C37.1875 42.0126 37.6539 42.479 38.2292 42.479H40.3125C40.8878 42.479 41.3542 42.0126 41.3542 41.4373V34.1457C41.3542 33.5704 40.8878 33.104 40.3125 33.104Z" fill="white"/>
<path d="M43.4377 34.6665H42.396V40.9165H43.4377C43.7139 40.9165 43.9789 40.8068 44.1742 40.6114C44.3696 40.4161 44.4793 40.1511 44.4793 39.8748V35.7082C44.4793 35.4319 44.3696 35.167 44.1742 34.9716C43.9789 34.7762 43.7139 34.6665 43.4377 34.6665Z" fill="white"/>
<path d="M26.771 33.104H24.6877C24.1124 33.104 23.646 33.5704 23.646 34.1457V41.4373C23.646 42.0126 24.1124 42.479 24.6877 42.479H26.771C27.3463 42.479 27.8127 42.0126 27.8127 41.4373V34.1457C27.8127 33.5704 27.3463 33.104 26.771 33.104Z" fill="white"/>
<path d="M20.521 35.7085V39.8752C20.521 40.1514 20.6307 40.4164 20.8261 40.6117C21.0214 40.8071 21.2864 40.9168 21.5627 40.9168H22.6043V34.6668H21.5627C21.2864 34.6668 21.0214 34.7766 20.8261 34.9719C20.6307 35.1673 20.521 35.4322 20.521 35.7085ZM39.4637 28.3387C39.6041 28.7919 39.848 29.2061 40.1761 29.5487C40.5043 29.8913 40.9077 30.1529 41.3543 30.3127C41.3543 27.9644 40.4215 25.7123 38.761 24.0518C37.1005 22.3913 34.8484 21.4585 32.5002 21.4585C30.1519 21.4585 27.8998 22.3913 26.2393 24.0518C24.5788 25.7123 23.646 27.9644 23.646 30.3127C24.0917 30.1522 24.494 29.8904 24.8212 29.5478C25.1484 29.2052 25.3916 28.7913 25.5314 28.3387C27.6564 21.5054 37.3647 21.5314 39.4637 28.3387Z" fill="white"/>
<path d="M40.9689 22.031C33.4741 14.5362 20.521 19.8279 20.521 30.4998V33.906C21.1408 33.5519 21.5991 33.6248 22.6043 33.6248C22.6043 30.3227 22.1668 26.8539 25.5054 23.505C31.672 17.3227 42.396 21.6456 42.396 30.4998V33.6248C43.4064 33.6248 43.8699 33.5571 44.4793 33.906C44.4793 30.2706 45.0002 26.0362 40.9689 22.031Z" fill="white"/>
</g>
<defs>
<clipPath id="clip0_75_4373">
<rect width="25" height="25" fill="white" transform="translate(20 18)"/>
</clipPath>
</defs>
</svg>
