<svg width="54" height="48" viewBox="0 0 54 48" fill="none" xmlns="http://www.w3.org/2000/svg">
<rect width="54" height="48" rx="10" fill="white"/>
<path d="M27.5 34.9019C27.342 34.9019 27.183 34.8639 27.037 34.7889C25.4047 33.9375 23.591 33.4929 21.75 33.4929C19.909 33.4929 18.0953 33.9375 16.463 34.7889C16.3105 34.868 16.1402 34.9065 15.9685 34.9007C15.7968 34.895 15.6294 34.8452 15.4825 34.7561C15.3356 34.667 15.2141 34.5417 15.1296 34.3921C15.0451 34.2425 15.0005 34.0737 15 33.9019V14.9019C15 14.7406 15.039 14.5817 15.1137 14.4387C15.1884 14.2958 15.2966 14.173 15.429 14.0809C19.21 11.4499 24.29 11.4499 28.072 14.0809C28.34 14.2679 28.5 14.5749 28.5 14.9019V33.9019C28.5 34.1671 28.3946 34.4215 28.2071 34.609C28.0196 34.7966 27.7652 34.9019 27.5 34.9019ZM21.75 31.4929C23.36 31.4929 24.971 31.7819 26.5 32.3599V15.4419C25.0694 14.5688 23.4259 14.1069 21.75 14.1069C20.0741 14.1069 18.4306 14.5688 17 15.4419V32.3599C18.518 31.7865 20.1273 31.4927 21.75 31.4929Z" fill="#F27851"/>
<path d="M39 34.9019C38.842 34.9019 38.683 34.8639 38.537 34.7889C36.9047 33.9375 35.091 33.4929 33.25 33.4929C31.409 33.4929 29.5953 33.9375 27.963 34.7889C27.8105 34.868 27.6402 34.9065 27.4685 34.9007C27.2968 34.895 27.1294 34.8452 26.9825 34.7561C26.8356 34.667 26.7141 34.5417 26.6296 34.3921C26.5451 34.2425 26.5005 34.0737 26.5 33.9019V14.9019C26.5 14.7406 26.539 14.5817 26.6137 14.4387C26.6884 14.2958 26.7966 14.173 26.929 14.0809C30.71 11.4499 35.79 11.4499 39.572 14.0809C39.84 14.2679 40 14.5749 40 14.9019V33.9019C40 34.1671 39.8946 34.4215 39.7071 34.609C39.5196 34.7966 39.2652 34.9019 39 34.9019ZM33.25 31.4929C34.86 31.4929 36.471 31.7819 38 32.3599V15.4419C36.5694 14.5688 34.9259 14.1069 33.25 14.1069C31.5741 14.1069 29.9306 14.5688 28.5 15.4419V32.3599C30.018 31.7865 31.6273 31.4927 33.25 31.4929Z" fill="#F27851"/>
</svg>
