<svg width="16" height="16" viewBox="0 0 16 16" fill="none" xmlns="http://www.w3.org/2000/svg">
<path d="M8 0C5.90133 0 4 1.702 4 3.80133C4 5.9 5.73467 8.406 8 12C10.2653 8.406 12 5.9 12 3.80133C12 1.702 10.0993 0 8 0ZM8 5.33333C7.26333 5.33333 6.66667 4.73667 6.66667 4C6.66667 3.26333 7.26333 2.66667 8 2.66667C8.73667 2.66667 9.33333 3.26333 9.33333 4C9.33333 4.73667 8.73667 5.33333 8 5.33333ZM10.6667 15C10.6667 15.552 9.47333 16 8 16C6.52667 16 5.33333 15.552 5.33333 15C5.33333 14.448 6.52667 14 8 14C9.47333 14 10.6667 14.448 10.6667 15Z" fill="#6F757E"/>
</svg>
