<svg width="18" height="19" viewBox="0 0 18 19" fill="none" xmlns="http://www.w3.org/2000/svg">
<path d="M0 2V17H18V2H0ZM9.75 13.25H2.25V12.9373C2.247 12.1033 2.283 11.627 3.243 11.405C4.29525 11.162 5.33325 10.9453 4.8345 10.0243C3.35475 7.2965 4.41225 5.75 6 5.75C7.55775 5.75 8.64075 7.23875 7.167 10.0243C6.68175 10.9392 7.683 11.1567 8.75775 11.405C9.72075 11.6278 9.75375 12.107 9.75 12.9478V13.25ZM15.75 13.25H11.25V11.75H15.75V13.25ZM15.75 10.25H11.25V8.75H15.75V10.25ZM15.75 7.25H11.25V5.75H15.75V7.25Z" fill="#050F24"/>
</svg>
