<svg width="40" height="41" viewBox="0 0 40 41" fill="none" xmlns="http://www.w3.org/2000/svg">
<circle cx="20" cy="20.5" r="20" fill="#FF8E29"/>
<path d="M21.3571 16.2503C21.3571 15.9737 21.1395 15.7206 20.7913 15.5893C20.4431 15.4581 20.0212 15.4722 19.6897 15.6268L16.4754 17.1268C15.9833 17.3565 15.8527 17.8206 16.1808 18.1675C16.5089 18.5143 17.1752 18.6058 17.6674 18.3761L19.2143 17.6518V24.5003H17.0714C16.4788 24.5003 16 24.8354 16 25.2503C16 25.6651 16.4788 26.0003 17.0714 26.0003H20.2857H23.5C24.0926 26.0003 24.5714 25.6651 24.5714 25.2503C24.5714 24.8354 24.0926 24.5003 23.5 24.5003H21.3571V16.2503Z" fill="white"/>
</svg>
