<svg width="18" height="19" viewBox="0 0 18 19" fill="none" xmlns="http://www.w3.org/2000/svg">
<g clip-path="url(#clip0_224_1619)">
<path d="M16.5 10.25V0.5H1.5V18.5H7.80675C11.4495 18.5 10.308 12.5 10.308 12.5C12.5648 13.0588 16.5 12.8142 16.5 10.25ZM13.5 5H4.5V4.25H13.5V5ZM13.5 7.25H4.5V6.5H13.5V7.25ZM13.5 9.5H4.5V8.75H13.5V9.5ZM11.9318 14.1672C13.467 14.5257 15.5355 13.958 16.5 13.283C15.3795 14.7815 12.5775 17.564 10.926 18.4437C11.793 17.5677 12.0983 15.2682 11.9318 14.1672Z" fill="#050F24"/>
</g>
<defs>
<clipPath id="clip0_224_1619">
<rect width="18" height="18" fill="white" transform="translate(0 0.5)"/>
</clipPath>
</defs>
</svg>
