<svg width="18" height="19" viewBox="0 0 18 19" fill="none" xmlns="http://www.w3.org/2000/svg">
<g clip-path="url(#clip0_224_1631)">
<path d="M11.3527 3.45875C10.8698 3.17825 10.572 2.65625 10.5728 2.09375V2.0915C10.5728 1.2125 9.8685 0.5 9 0.5C8.1315 0.5 7.42725 1.2125 7.42725 2.0915V2.09375C7.428 2.657 7.13025 3.17825 6.6465 3.45875C3.14625 5.49275 5.15775 12.245 1.5 13.4382V14.75H16.5V13.4382C12.8422 12.245 14.8538 5.49275 11.3527 3.45875ZM6.30675 12.5H4.89525C5.829 10.4443 5.5545 5.741 7.8 4.50875C6.47925 6.059 7.0875 10.1368 6.30675 12.5ZM9 2.75C8.586 2.75 8.25 2.414 8.25 2C8.25 1.58675 8.586 1.25 9 1.25C9.414 1.25 9.75 1.58675 9.75 2C9.75 2.414 9.414 2.75 9 2.75ZM6.75 16.25H11.25C11.25 17.4485 10.2052 18.5 9.02175 18.5C7.8375 18.5 6.75 17.4485 6.75 16.25Z" fill="#050F24"/>
</g>
<defs>
<clipPath id="clip0_224_1631">
<rect width="18" height="18" fill="white" transform="translate(0 0.5)"/>
</clipPath>
</defs>
</svg>
