<svg width="18" height="19" viewBox="0 0 18 19" fill="none" xmlns="http://www.w3.org/2000/svg">
<g clip-path="url(#clip0_224_1622)">
<path d="M12.75 7.82075V4.25C12.75 2.17925 11.0715 0.5 9 0.5C6.92775 0.5 5.25 2.17925 5.25 4.25V7.82075C3.87975 8.92025 3 10.6062 3 12.5C3 15.8135 5.6865 18.5 9 18.5C12.3135 18.5 15 15.8135 15 12.5C15 10.6062 14.1202 8.92025 12.75 7.82075ZM9 14C8.172 14 7.5 13.328 7.5 12.5C7.5 11.672 8.172 11 9 11C9.828 11 10.5 11.672 10.5 12.5C10.5 13.328 9.828 14 9 14ZM11.25 6.94025C10.5547 6.65825 9.7965 6.5 9 6.5C8.2035 6.5 7.44525 6.65825 6.75 6.94025V4.25C6.75 3.0095 7.7595 2 9 2C10.2405 2 11.25 3.0095 11.25 4.25V6.94025Z" fill="#050F24"/>
</g>
<defs>
<clipPath id="clip0_224_1622">
<rect width="18" height="18" fill="white" transform="translate(0 0.5)"/>
</clipPath>
</defs>
</svg>
