<svg width="16" height="16" viewBox="0 0 16 16" fill="none" xmlns="http://www.w3.org/2000/svg">
<path d="M0 1.33334V14.6667H16V1.33334H0ZM8.66667 11.3333H2V11.0553C1.99733 10.314 2.02933 9.89068 2.88267 9.69334C3.818 9.47734 4.74067 9.28468 4.29733 8.46601C2.982 6.04134 3.922 4.66668 5.33333 4.66668C6.718 4.66668 7.68067 5.99001 6.37067 8.46601C5.93933 9.27934 6.82933 9.47268 7.78467 9.69334C8.64067 9.89134 8.67 10.3173 8.66667 11.0647V11.3333V11.3333ZM14 11.3333H10V10H14V11.3333ZM14 8.66668H10V7.33334H14V8.66668ZM14 6.00001H10V4.66668H14V6.00001Z" fill="#6F757E"/>
</svg>
