<svg width="18" height="19" viewBox="0 0 18 19" fill="none" xmlns="http://www.w3.org/2000/svg">
<path d="M15.0112 5.3795H3.01123V16.1968C3.01123 16.64 3.34723 17 3.76123 17H14.2612C14.6752 17 15.0112 16.64 15.0112 16.1968C15.0112 13.268 15.0112 5.3795 15.0112 5.3795ZM10.6987 7.25C11.0092 7.25 11.2612 7.502 11.2612 7.8125V14.1875C11.2612 14.498 11.0092 14.75 10.6987 14.75C10.3882 14.75 10.1362 14.498 10.1362 14.1875V7.8125C10.1362 7.502 10.3882 7.25 10.6987 7.25ZM7.32373 7.25C7.63423 7.25 7.88623 7.502 7.88623 7.8125V14.1875C7.88623 14.498 7.63423 14.75 7.32373 14.75C7.01323 14.75 6.76123 14.498 6.76123 14.1875V7.8125C6.76123 7.502 7.01323 7.25 7.32373 7.25ZM6.76123 3.5V2.75C6.76123 2.34875 7.11673 2 7.51123 2H10.5112C10.9057 2 11.2612 2.34875 11.2612 2.75V3.5H15.2017C15.5107 3.5 15.7612 3.75125 15.7612 4.06025C15.7612 4.36925 15.5107 4.6205 15.2017 4.6205H2.82148C2.51173 4.6205 2.26123 4.36925 2.26123 4.06025C2.26123 3.75125 2.51173 3.5 2.82148 3.5H6.76123ZM10.1362 3.5V3.125H7.88623V3.5H10.1362Z" fill="#050F24"/>
</svg>
