<svg width="16" height="16" viewBox="0 0 16 16" fill="none" xmlns="http://www.w3.org/2000/svg">
<path d="M13 2H11.5V1.5C11.5 1.36739 11.4473 1.24021 11.3536 1.14645C11.2598 1.05268 11.1326 1 11 1C10.8674 1 10.7402 1.05268 10.6464 1.14645C10.5527 1.24021 10.5 1.36739 10.5 1.5V2H5.5V1.5C5.5 1.36739 5.44732 1.24021 5.35355 1.14645C5.25979 1.05268 5.13261 1 5 1C4.86739 1 4.74021 1.05268 4.64645 1.14645C4.55268 1.24021 4.5 1.36739 4.5 1.5V2H3C2.73478 2 2.48043 2.10536 2.29289 2.29289C2.10536 2.48043 2 2.73478 2 3V13C2 13.2652 2.10536 13.5196 2.29289 13.7071C2.48043 13.8946 2.73478 14 3 14H13C13.2652 14 13.5196 13.8946 13.7071 13.7071C13.8946 13.5196 14 13.2652 14 13V3C14 2.73478 13.8946 2.48043 13.7071 2.29289C13.5196 2.10536 13.2652 2 13 2V2ZM6.5 11.75C6.10207 11.7496 5.72033 11.5924 5.4375 11.3125C5.34399 11.2188 5.29148 11.0918 5.29148 10.9594C5.29148 10.827 5.34399 10.7 5.4375 10.6062C5.48349 10.5592 5.53841 10.5218 5.59906 10.4963C5.6597 10.4707 5.72483 10.4576 5.79063 10.4576C5.85642 10.4576 5.92155 10.4707 5.98219 10.4963C6.04284 10.5218 6.09776 10.5592 6.14375 10.6062C6.23973 10.698 6.36723 10.7494 6.5 10.75C6.63261 10.75 6.75979 10.6973 6.85355 10.6036C6.94732 10.5098 7 10.3826 7 10.25C7 10.1174 6.94732 9.99021 6.85355 9.89645C6.75979 9.80268 6.63261 9.75 6.5 9.75H6.34375L6.31875 9.7375H6.3L6.26875 9.725H6.2625L6.225 9.7H6.2125L6.1875 9.68125L6.1625 9.6625L6.15 9.65L6.13125 9.63125C6.09849 9.59356 6.07115 9.55149 6.05 9.50625C6.03204 9.473 6.01939 9.43715 6.0125 9.4C6.00625 9.39375 6.00625 9.3875 6.00625 9.375C6.00654 9.37161 6.00613 9.3682 6.00506 9.36498C6.00398 9.36176 6.00226 9.35879 6 9.35625V9.20625C6 9.19375 6.00625 9.1875 6.00625 9.18125V9.15625C6.01122 9.14892 6.01344 9.14006 6.0125 9.13125C6.01875 9.125 6.01875 9.11875 6.01875 9.10625L6.03125 9.0875C6.03125 9.075 6.03125 9.06875 6.0375 9.0625L6.05 9.0375V9.01875L6.0625 8.99375L6.075 8.975L6.09375 8.95L6.10625 8.9375L6.45625 8.5H5.75C5.61739 8.5 5.49021 8.44732 5.39645 8.35355C5.30268 8.25979 5.25 8.13261 5.25 8C5.25 7.86739 5.30268 7.74021 5.39645 7.64645C5.49021 7.55268 5.61739 7.5 5.75 7.5H7.5C7.59396 7.50053 7.68587 7.52752 7.7652 7.57788C7.84452 7.62825 7.90805 7.69995 7.9485 7.78476C7.98894 7.86957 8.00468 7.96406 7.99389 8.0574C7.9831 8.15074 7.94623 8.23915 7.8875 8.3125L7.3375 9.00625C7.60382 9.18579 7.80547 9.44608 7.91279 9.74881C8.02011 10.0515 8.02742 10.3807 7.93365 10.6879C7.83988 10.9951 7.64999 11.2641 7.39191 11.4553C7.13382 11.6465 6.82119 11.7498 6.5 11.75V11.75ZM10.5 11.25C10.5 11.3826 10.4473 11.5098 10.3536 11.6036C10.2598 11.6973 10.1326 11.75 10 11.75C9.86739 11.75 9.74021 11.6973 9.64645 11.6036C9.55268 11.5098 9.5 11.3826 9.5 11.25V9L9.3 9.15C9.19334 9.22797 9.06043 9.26115 8.92965 9.24247C8.79886 9.22378 8.68056 9.15471 8.6 9.05C8.52044 8.94391 8.48627 8.81056 8.50502 8.67929C8.52378 8.54801 8.59391 8.42957 8.7 8.35L9.7 7.6C9.77428 7.54429 9.86262 7.51036 9.9551 7.50202C10.0476 7.49368 10.1406 7.51126 10.2236 7.55279C10.3067 7.59431 10.3765 7.65815 10.4253 7.73713C10.4741 7.81612 10.5 7.90714 10.5 8V11.25ZM13 5H3V3H4.5V3.5C4.5 3.63261 4.55268 3.75979 4.64645 3.85355C4.74021 3.94732 4.86739 4 5 4C5.13261 4 5.25979 3.94732 5.35355 3.85355C5.44732 3.75979 5.5 3.63261 5.5 3.5V3H10.5V3.5C10.5 3.63261 10.5527 3.75979 10.6464 3.85355C10.7402 3.94732 10.8674 4 11 4C11.1326 4 11.2598 3.94732 11.3536 3.85355C11.4473 3.75979 11.5 3.63261 11.5 3.5V3H13V5Z" fill="#6F757E"/>
</svg>
