<svg width="24" height="24" viewBox="0 0 24 24" fill="none" xmlns="http://www.w3.org/2000/svg">
<path d="M3.95354 6.04953L6.00849 8.69697L2.39298 9.41269L2.10046 7.9426L2.10029 7.94176C2.06156 7.74885 2.06129 7.55019 2.0995 7.35718C2.13771 7.16416 2.21364 6.98059 2.32294 6.81699C2.43225 6.65338 2.57277 6.51296 2.73646 6.40378C2.89993 6.29473 3.08329 6.21899 3.27606 6.18088C3.27631 6.18083 3.27656 6.18078 3.27681 6.18073L3.95354 6.04953ZM2.50008 20.0002V10.5002H21.5001V13.0065C21.1795 12.8724 20.8458 12.7629 20.5001 12.6811V12.0002V11.5002H20.0001H4.00008H3.50008V12.0002V20.0002V20.5002H4.00008H12.6846C12.7678 20.8446 12.8758 21.1783 13.0089 21.5002H4.00008C3.60225 21.5002 3.22072 21.3421 2.93941 21.0608C2.65811 20.7795 2.50008 20.398 2.50008 20.0002ZM18.1036 19.7837L21.304 16.5833L21.8257 17.2175L17.7658 21.2774L15.6921 19.0152L16.1601 18.5473L17.3965 19.7837L17.7501 20.1373L18.1036 19.7837ZM15.819 6.73767L14.955 6.9096L12.8932 4.26306L13.7644 4.0906L15.819 6.73767ZM17.8002 3.29327L20.4472 2.7679L21.0325 5.70928L19.8552 5.94832L17.8002 3.29327ZM10.055 7.8896L7.98782 5.23613L8.86551 5.05346L10.9215 7.71719L10.055 7.8896Z" fill="#191919" stroke="#525256"/>
</svg>
