<svg width="33" height="32" viewBox="0 0 33 32" fill="none" xmlns="http://www.w3.org/2000/svg">
<path d="M10.1388 24.716H16.8047C16.8607 24.7154 16.9162 24.7047 16.9684 24.6846C17.0206 24.664 17.0687 24.6341 17.1102 24.5964L22.7528 19.2623C22.797 19.2216 22.8324 19.1722 22.8567 19.1174C22.8789 19.0655 22.8917 19.01 22.8946 18.9536V14.1485C22.8946 13.8876 22.683 13.6761 22.4221 13.6761C22.1613 13.6761 21.9499 13.8876 21.9499 14.1485V18.4464H19.0466C18.3267 18.4481 17.6369 18.735 17.1281 19.2445C16.6193 19.7538 16.3332 20.4439 16.3324 21.1638V23.7711H10.1387C9.66934 23.7711 9.21921 23.5847 8.88742 23.2528C8.55547 22.921 8.36895 22.4708 8.36895 22.0014V11.9538C8.36895 11.4842 8.55529 11.0337 8.88708 10.7014C9.21887 10.369 9.669 10.1818 10.1387 10.181H17.9919C18.2527 10.181 18.4642 9.96957 18.4642 9.70875C18.4642 9.44778 18.2528 9.23633 17.9919 9.23633H10.1387C9.41883 9.23799 8.72883 9.52506 8.22019 10.0344C7.71138 10.5437 7.42512 11.2339 7.42432 11.9537V22.0014C7.42515 22.721 7.71138 23.411 8.22036 23.9198C8.72917 24.4286 9.419 24.7148 10.1387 24.7156L10.1388 24.716ZM19.0468 19.3914H21.251L17.2772 23.148V21.1641C17.2772 20.6946 17.4636 20.2441 17.7954 19.9118C18.1271 19.5793 18.5773 19.3922 19.0468 19.3914Z" fill="black"/>
<path d="M21.7707 8.147C21.6455 8.14783 21.5258 8.19753 21.4369 8.28547L14.2671 15.4553C14.2161 15.5079 14.1773 15.5714 14.1537 15.6411L13.3067 18.242C13.2535 18.4107 13.2984 18.5952 13.4232 18.7205C13.5487 18.8455 13.733 18.8904 13.9019 18.8371L16.5028 17.9868V17.987C16.5723 17.9634 16.6358 17.9247 16.6885 17.8736L23.8553 10.7039C24.0378 10.5187 24.0378 10.2215 23.8553 10.0363L22.1046 8.28544C22.016 8.19684 21.896 8.14714 21.7708 8.14697L21.7707 8.147ZM16.1026 17.124L14.4967 17.6499L15.0226 16.0441L21.7703 9.28662L22.8534 10.3697L16.1026 17.124Z" fill="black"/>
</svg>
