<svg width="33" height="32" viewBox="0 0 33 32" fill="none" xmlns="http://www.w3.org/2000/svg">
<path d="M10.8228 24.9569C10.7661 24.9669 10.7079 24.9669 10.651 24.9569C10.4753 24.8845 10.3604 24.7136 10.3596 24.5235V21.2216H8.46214C8.00837 21.2216 7.57337 21.0413 7.25235 20.7205C6.93156 20.3997 6.75146 19.9645 6.75146 19.5109V8.94016C6.75146 8.48639 6.93156 8.05139 7.25235 7.73058C7.57334 7.40958 8.00836 7.22949 8.46214 7.22949H20.6167C20.8518 7.2593 21.0281 7.45919 21.0281 7.6964C21.0281 7.9334 20.8518 8.1335 20.6167 8.16331H8.46214C8.04964 8.16331 7.71509 8.49764 7.71509 8.91036V19.5185C7.71509 19.7167 7.79388 19.9068 7.93396 20.0469C8.07403 20.1869 8.26392 20.2655 8.46214 20.2655H10.8227C11.0826 20.2655 11.2934 20.4763 11.2934 20.7362V23.2763L14.0352 20.4748C14.1213 20.38 14.2432 20.3258 14.3712 20.3254H24.6506C24.8489 20.3254 25.0388 20.2468 25.1788 20.1065C25.3191 19.9664 25.3977 19.7765 25.3977 19.5783V12.8922C25.3808 12.7582 25.4223 12.6233 25.5115 12.522C25.6009 12.4205 25.7295 12.3626 25.8646 12.3626C25.9999 12.3626 26.1285 12.4205 26.2177 12.522C26.3071 12.6233 26.3486 12.7582 26.3315 12.8922V19.5186C26.3296 19.9659 26.1527 20.3946 25.8385 20.7131C25.5242 21.0314 25.0979 21.2142 24.6506 21.222H14.5729L11.1664 24.7854C11.0799 24.8867 10.9558 24.9486 10.8226 24.9572L10.8228 24.9569Z" fill="black"/>
<path d="M18.0766 10.9868H9.26888C9.03355 10.957 8.85742 10.7569 8.85742 10.5199C8.85742 10.2829 9.03356 10.0828 9.26888 10.053H18.0766C18.2106 10.0361 18.3455 10.0776 18.447 10.1668C18.5483 10.2562 18.6065 10.3848 18.6065 10.5199C18.6065 10.6552 18.5483 10.7838 18.447 10.873C18.3455 10.9624 18.2106 11.0039 18.0766 10.9868Z" fill="black"/>
<path d="M15.3051 13.8184H9.26888C9.03355 13.7886 8.85742 13.5885 8.85742 13.3515C8.85742 13.1143 9.03356 12.9144 9.26888 12.8846H15.3051H15.3048C15.4391 12.8675 15.5739 12.909 15.6752 12.9984C15.7767 13.0877 15.8347 13.2163 15.8347 13.3515C15.8347 13.4866 15.7768 13.6152 15.6752 13.7046C15.5739 13.7939 15.4391 13.8353 15.3048 13.8184H15.3051Z" fill="black"/>
<path d="M15.3051 16.6421H9.26888C9.03355 16.6123 8.85742 16.4122 8.85742 16.1752C8.85742 15.9382 9.03356 15.7381 9.26888 15.7083H15.3051H15.3048C15.4391 15.6914 15.5739 15.7327 15.6752 15.8221C15.7767 15.9115 15.8347 16.0401 15.8347 16.1752C15.8347 16.3103 15.7768 16.4389 15.6752 16.5283C15.5739 16.6177 15.4391 16.6592 15.3048 16.6421H15.3051Z" fill="black"/>
<path d="M17.2398 16.6421C17.0816 16.6454 16.9328 16.5676 16.845 16.4359C16.757 16.3042 16.7427 16.137 16.8064 15.9921L17.9568 13.1682H17.9571C17.9837 13.105 18.0246 13.0487 18.0765 13.0039L23.911 7.16947C24.0938 6.99104 24.3856 6.99104 24.5684 7.16947L26.2941 8.91015C26.3849 8.99519 26.4364 9.11421 26.436 9.23886C26.4339 9.36267 26.3829 9.48086 26.2941 9.56757L20.609 15.2452C20.5675 15.2906 20.5165 15.3262 20.4595 15.3498L17.4191 16.6198C17.3611 16.6378 17.3004 16.6453 17.2398 16.6421L17.2398 16.6421ZM18.8235 13.609L18.0765 15.3124L20.0115 14.498L25.2856 9.26867L24.2247 8.17792L18.8235 13.609Z" fill="black"/>
</svg>
