<svg width="20" height="29" viewBox="0 0 20 29" fill="none" xmlns="http://www.w3.org/2000/svg">
<path d="M3.01999 17.7246C4.17393 19.3519 5.71063 20.3287 7.34057 20.4712C8.97051 20.6136 10.5812 19.9118 11.8692 18.498L16.3008 24.7385C16.458 24.9522 16.6685 25.0705 16.887 25.0678C17.1055 25.0652 17.3145 24.9417 17.469 24.7242C17.6235 24.5066 17.7112 24.2123 17.7131 23.9046C17.7149 23.5969 17.631 23.3005 17.4792 23.0792L13.0475 16.8387C14.0961 14.9437 14.5918 12.5568 14.4336 10.1649C14.2755 7.7729 13.4753 5.55599 12.1962 3.96625C10.9172 2.37652 9.25568 1.53371 7.55054 1.60971C5.8454 1.68571 4.22506 2.67479 3.01999 4.37525C2.39732 5.25162 1.90337 6.29217 1.56637 7.43743C1.22937 8.5827 1.05591 9.81025 1.05591 11.0499C1.05591 12.2896 1.22937 13.5172 1.56637 14.6625C1.90337 15.8077 2.39732 16.8483 3.01999 17.7246ZM4.19832 6.03688C5.02213 4.87685 6.10609 4.15492 7.26551 3.9941C8.42493 3.83328 9.58808 4.24353 10.5568 5.15493C11.5255 6.06633 12.2398 7.42251 12.5781 8.9924C12.9163 10.5623 12.8576 12.2488 12.4118 13.7645C11.966 15.2802 11.1608 16.5314 10.1334 17.3049C9.10601 18.0784 7.91993 18.3263 6.77726 18.0064C5.63458 17.6865 4.60602 16.8186 3.86682 15.5506C3.12761 14.2826 2.7235 12.6928 2.72332 11.0523C2.72103 10.1201 2.85024 9.19646 3.10344 8.3351C3.35665 7.47374 3.7288 6.69176 4.19832 6.03453V6.03688Z" fill="#F76B56"/>
</svg>
