<svg width="24" height="24" viewBox="0 0 24 24" fill="none" xmlns="http://www.w3.org/2000/svg">
<path d="M11.9997 3.5C11.316 3.50008 10.7183 3.74959 10.2334 4.23445C9.7485 4.71939 9.49917 5.31709 9.5 6.00061L9.50061 6.5H10H14H14.5V6C14.5 5.31621 14.2505 4.71838 13.7656 4.23345C13.2807 3.74857 12.6831 3.49924 11.9997 3.5ZM11.9997 3.5C11.9998 3.5 11.9999 3.5 12 3.5V4L11.9994 3.5C11.9995 3.5 11.9996 3.5 11.9997 3.5ZM16 6C16 4.9 15.6083 3.95833 14.825 3.175C14.0417 2.39167 13.1 2 12 2C10.9 2 9.95834 2.39167 9.175 3.175C8.39167 3.95833 8 4.9 8 6H7.5H6C5.45067 5.99933 4.98 6.195 4.588 6.587C4.196 6.979 4 7.45 4 8L16 6ZM16 6H16.5M16 6H16.5M16.5 6H18C18.55 6 19.021 6.196 19.413 6.588C19.805 6.98 20.0007 7.45067 20 8V20C20 20.55 19.804 21.021 19.412 21.413C19.02 21.805 18.5493 22.0007 18 22L16.5 6ZM4.5 20.0006V20V8C4.5 7.58379 4.64248 7.23962 4.94155 6.94055C5.24061 6.6415 5.58424 6.4995 5.99939 6.5H6H8H8.5V6C8.5 5.03366 8.83824 4.21887 9.52856 3.52855C10.2189 2.83824 11.0337 2.5 12 2.5C12.9663 2.5 13.7811 2.83824 14.4714 3.52855C15.1618 4.21887 15.5 5.03366 15.5 6V6.5H16H18C18.4162 6.5 18.7604 6.64248 19.0594 6.94155C19.3585 7.24061 19.5005 7.58424 19.5 7.99939V8V20C19.5 20.4162 19.3575 20.7604 19.0584 21.0594C18.7594 21.3585 18.4158 21.5005 18.0006 21.5H18H6C5.58379 21.5 5.23962 21.3575 4.94056 21.0584C4.6415 20.7594 4.4995 20.4158 4.5 20.0006ZM5.5 20V20.5H6H18H18.5V20V8V7.5H18H16H15.5V8V10C15.5 10.1572 15.4522 10.2657 15.3584 10.3594C15.2647 10.4532 15.1569 10.5004 15.0012 10.5H15C14.8428 10.5 14.7343 10.4522 14.6406 10.3584C14.5468 10.2647 14.4996 10.1569 14.5 10.0012V10V8V7.5H14H10H9.5V8V10C9.5 10.1572 9.45223 10.2657 9.35845 10.3594C9.26473 10.4532 9.15692 10.5004 9.00118 10.5H9C8.84285 10.5 8.73434 10.4522 8.64056 10.3584C8.54683 10.2647 8.49963 10.1569 8.5 10.0012V10V8V7.5H8H6H5.5V8V20ZM10.0589 5.5H10V5.99441C10.0002 5.82183 10.0198 5.65702 10.0589 5.5ZM14 6C14 5.82537 13.9802 5.6587 13.9407 5.5H14V6Z" fill="#191919" stroke="#525256"/>
</svg>
