<svg width="18" height="17" viewBox="0 0 18 17" fill="none" xmlns="http://www.w3.org/2000/svg">
<path d="M9.00033 15.7082H4.83366C1.79199 15.7082 0.0419922 13.9582 0.0419922 10.9165V5.08317C0.0419922 2.0415 1.79199 0.291504 4.83366 0.291504H13.167C16.2087 0.291504 17.9587 2.0415 17.9587 5.08317V7.58317C17.9587 7.92484 17.6753 8.20817 17.3337 8.20817C16.992 8.20817 16.7087 7.92484 16.7087 7.58317V5.08317C16.7087 2.69984 15.5503 1.5415 13.167 1.5415H4.83366C2.45033 1.5415 1.29199 2.69984 1.29199 5.08317V10.9165C1.29199 13.2998 2.45033 14.4582 4.83366 14.4582H9.00033C9.34199 14.4582 9.62533 14.7415 9.62533 15.0832C9.62533 15.4248 9.34199 15.7082 9.00033 15.7082Z" fill="#D70404"/>
<path d="M9.00022 8.72473C8.30022 8.72473 7.59189 8.50805 7.05022 8.06639L4.44189 5.98305C4.17522 5.76639 4.12522 5.37473 4.34189 5.10806C4.55856 4.8414 4.95021 4.79973 5.21688 5.00807L7.82522 7.0914C8.45855 7.59973 9.53355 7.59973 10.1669 7.0914L12.7752 5.00807C13.0419 4.7914 13.4335 4.83306 13.6502 5.10806C13.8669 5.37473 13.8252 5.77472 13.5502 5.98305L10.9419 8.06639C10.4085 8.50805 9.70022 8.72473 9.00022 8.72473Z" fill="#D70404"/>
<path d="M12.1838 16.1498C11.8671 16.1498 11.5671 16.0332 11.3505 15.8165C11.0921 15.5582 10.9755 15.1832 11.0338 14.7915L11.1921 13.6665C11.2338 13.3748 11.4088 13.0248 11.6171 12.8165L14.5671 9.8665C14.9671 9.4665 15.3588 9.25817 15.7838 9.2165C16.3005 9.1665 16.8171 9.38317 17.3004 9.8665C17.7838 10.3498 18.0004 10.8582 17.9504 11.3832C17.9088 11.7998 17.6921 12.1998 17.3004 12.5998L14.3505 15.5498C14.1421 15.7582 13.7921 15.9332 13.5004 15.9749L12.3754 16.1332C12.3088 16.1415 12.2505 16.1498 12.1838 16.1498ZM15.9254 10.4582C15.9171 10.4582 15.9088 10.4582 15.9004 10.4582C15.7838 10.4665 15.6254 10.5748 15.4504 10.7498L12.5005 13.6998C12.4755 13.7248 12.4338 13.8082 12.4338 13.8415L12.2838 14.8832L13.3255 14.7332C13.3588 14.7248 13.4421 14.6832 13.4671 14.6582L16.4171 11.7082C16.5921 11.5249 16.7004 11.3748 16.7088 11.2582C16.7254 11.0915 16.5588 10.8915 16.4171 10.7498C16.2838 10.6165 16.0921 10.4582 15.9254 10.4582Z" fill="#D70404"/>
<path d="M16.4338 13.208C16.3755 13.208 16.3171 13.1997 16.2671 13.183C15.1671 12.8747 14.2922 11.9997 13.9838 10.8997C13.8922 10.5664 14.0838 10.2247 14.4171 10.1247C14.7505 10.033 15.0922 10.2247 15.1838 10.558C15.3755 11.2414 15.9171 11.783 16.6005 11.9747C16.9338 12.0664 17.1255 12.4164 17.0338 12.7497C16.9588 13.0247 16.7088 13.208 16.4338 13.208Z" fill="#D70404"/>
</svg>
