<svg width="19" height="19" viewBox="0 0 19 19" fill="none" xmlns="http://www.w3.org/2000/svg">
<path d="M9.59054 17.6897C5.07443 17.6897 1.40088 14.0161 1.40088 9.5C1.40088 4.98389 5.07443 1.31034 9.59054 1.31034C14.1066 1.31034 17.7802 4.98389 17.7802 9.5C17.7802 14.0161 14.106 17.6897 9.59054 17.6897ZM9.59054 2.62069C5.79709 2.62069 2.71122 5.70655 2.71122 9.5C2.71122 13.2934 5.79709 16.3793 9.59054 16.3793C13.384 16.3793 16.4698 13.2934 16.4698 9.5C16.4698 5.70655 13.3833 2.62069 9.59054 2.62069ZM9.53812 10.1028H5.33191C5.15815 10.1028 4.99151 10.0337 4.86864 9.91086C4.74577 9.78799 4.67674 9.62135 4.67674 9.44758C4.67674 9.27382 4.74577 9.10718 4.86864 8.98431C4.99151 8.86144 5.15815 8.79241 5.33191 8.79241H8.88295V3.93103C8.88295 3.75727 8.95198 3.59062 9.07484 3.46775C9.19771 3.34489 9.36436 3.27586 9.53812 3.27586C9.71189 3.27586 9.87853 3.34489 10.0014 3.46775C10.1243 3.59062 10.1933 3.75727 10.1933 3.93103V9.44758C10.1933 9.62135 10.1243 9.78799 10.0014 9.91086C9.87853 10.0337 9.71189 10.1028 9.53812 10.1028Z" fill="#F76B56"/>
</svg>
