<svg width="20" height="22" viewBox="0 0 20 22" fill="none" xmlns="http://www.w3.org/2000/svg">
<path d="M7.8916 13.636C7.73327 13.636 7.57493 13.5735 7.44993 13.4397C6.7666 12.7079 6.3916 11.7351 6.3916 10.7089C6.3916 8.57601 8.00827 6.84473 9.99993 6.84473C10.9583 6.84473 11.8666 7.24631 12.5499 7.97809C12.6666 8.10303 12.7333 8.27259 12.7333 8.45107C12.7333 8.62955 12.6666 8.79911 12.5499 8.92405L8.33327 13.4397C8.20827 13.5735 8.04994 13.636 7.8916 13.636ZM9.99993 8.18335C8.69993 8.18335 7.6416 9.31671 7.6416 10.7089C7.6416 11.1551 7.74993 11.5834 7.94993 11.9583L11.1666 8.51354C10.8166 8.29936 10.4166 8.18335 9.99993 8.18335Z" fill="#797979"/>
<path d="M4.66678 16.5186C4.52511 16.5186 4.37511 16.4651 4.25845 16.358C3.36678 15.5459 2.56678 14.5464 1.88345 13.3862C1.00011 11.9137 1.00011 9.51315 1.88345 8.03175C3.91678 4.62273 6.87511 2.65942 10.0001 2.65942C11.8334 2.65942 13.6418 3.33766 15.2251 4.61381C15.5001 4.83691 15.5584 5.25635 15.3501 5.55084C15.1418 5.84534 14.7501 5.90781 14.4751 5.6847C13.1084 4.57811 11.5584 3.99804 10.0001 3.99804C7.30845 3.99804 4.73345 5.72932 2.93345 8.7546C2.30845 9.79873 2.30845 11.6192 2.93345 12.6634C3.55845 13.7075 4.27511 14.6088 5.06678 15.3406C5.32511 15.5816 5.35845 16.001 5.13345 16.2866C5.01678 16.4383 4.84178 16.5186 4.66678 16.5186Z" fill="#797979"/>
<path d="M9.99989 18.7586C8.89156 18.7586 7.80822 18.5176 6.76656 18.0446C6.44989 17.9018 6.29989 17.5092 6.43322 17.1701C6.56656 16.8309 6.93322 16.6703 7.24989 16.8131C8.13322 17.2147 9.05822 17.4199 9.99156 17.4199C12.6832 17.4199 15.2582 15.6887 17.0582 12.6634C17.6832 11.6192 17.6832 9.79873 17.0582 8.7546C16.7999 8.31732 16.5166 7.89789 16.2166 7.50522C15.9999 7.21965 16.0416 6.80022 16.3082 6.55927C16.5749 6.32724 16.9666 6.36294 17.1916 6.65743C17.5166 7.08579 17.8332 7.54985 18.1166 8.03175C18.9999 9.50423 18.9999 11.9048 18.1166 13.3862C16.0832 16.7952 13.1249 18.7586 9.99989 18.7586Z" fill="#797979"/>
<path d="M10.5749 14.5196C10.2832 14.5196 10.0166 14.2965 9.95824 13.9753C9.89157 13.6094 10.1166 13.2613 10.4582 13.1989C11.3749 13.0204 12.1416 12.1994 12.3082 11.2177C12.3749 10.8518 12.6999 10.6198 13.0416 10.6823C13.3832 10.7537 13.6082 11.1017 13.5416 11.4676C13.2749 13.0115 12.1249 14.2341 10.6916 14.5196C10.6499 14.5107 10.6166 14.5196 10.5749 14.5196Z" fill="#797979"/>
<path d="M1.66662 20.3025C1.50828 20.3025 1.34995 20.24 1.22495 20.1062C0.983285 19.8474 0.983285 19.419 1.22495 19.1602L7.44995 12.4939C7.69162 12.2351 8.09162 12.2351 8.33329 12.4939C8.57495 12.7527 8.57495 13.1811 8.33329 13.4399L2.10828 20.1062C1.98328 20.24 1.82495 20.3025 1.66662 20.3025Z" fill="#797979"/>
<path d="M12.1083 9.12039C11.9499 9.12039 11.7916 9.05792 11.6666 8.92406C11.4249 8.66526 11.4249 8.2369 11.6666 7.9781L17.8916 1.31178C18.1333 1.05298 18.5333 1.05298 18.7749 1.31178C19.0166 1.57058 19.0166 1.99893 18.7749 2.25773L12.5499 8.92406C12.4249 9.05792 12.2666 9.12039 12.1083 9.12039Z" fill="#797979"/>
</svg>
