<svg width="20" height="23" viewBox="0 0 20 23" fill="none" xmlns="http://www.w3.org/2000/svg">
<path d="M7.8916 14.5913C7.73327 14.5913 7.57493 14.5288 7.44993 14.395C6.7666 13.6632 6.3916 12.6905 6.3916 11.6642C6.3916 9.53133 8.00827 7.80005 9.99993 7.80005C10.9583 7.80005 11.8666 8.20163 12.5499 8.93341C12.6666 9.05835 12.7333 9.22791 12.7333 9.40639C12.7333 9.58487 12.6666 9.75443 12.5499 9.87937L8.33327 14.395C8.20827 14.5288 8.04994 14.5913 7.8916 14.5913ZM9.99993 9.13867C8.69993 9.13867 7.6416 10.272 7.6416 11.6642C7.6416 12.1104 7.74993 12.5388 7.94993 12.9136L11.1666 9.46886C10.8166 9.25468 10.4166 9.13867 9.99993 9.13867Z" fill="#797979"/>
<path d="M4.66654 17.4738C4.52487 17.4738 4.37487 17.4203 4.2582 17.3132C3.36654 16.5011 2.56654 15.5016 1.8832 14.3414C0.99987 12.8689 0.99987 10.4684 1.8832 8.98695C3.91654 5.57793 6.87487 3.61462 9.99987 3.61462C11.8332 3.61462 13.6415 4.29286 15.2249 5.56901C15.4999 5.79211 15.5582 6.21155 15.3499 6.50604C15.1415 6.80054 14.7499 6.86301 14.4749 6.6399C13.1082 5.53331 11.5582 4.95324 9.99987 4.95324C7.3082 4.95324 4.7332 6.68452 2.9332 9.7098C2.3082 10.7539 2.3082 12.5744 2.9332 13.6186C3.5582 14.6627 4.27487 15.564 5.06654 16.2958C5.32487 16.5368 5.3582 16.9562 5.1332 17.2418C5.01654 17.3935 4.84154 17.4738 4.66654 17.4738Z" fill="#797979"/>
<path d="M10.0001 19.7138C8.8918 19.7138 7.80847 19.4728 6.7668 18.9998C6.45013 18.857 6.30013 18.4644 6.43347 18.1253C6.5668 17.7861 6.93347 17.6255 7.25013 17.7683C8.13347 18.1699 9.05847 18.3751 9.9918 18.3751C12.6835 18.3751 15.2585 16.6439 17.0585 13.6186C17.6835 12.5744 17.6835 10.7539 17.0585 9.7098C16.8001 9.27252 16.5168 8.85309 16.2168 8.46042C16.0001 8.17485 16.0418 7.75542 16.3085 7.51447C16.5751 7.28244 16.9668 7.31814 17.1918 7.61263C17.5168 8.04099 17.8335 8.50505 18.1168 8.98695C19.0001 10.4594 19.0001 12.86 18.1168 14.3414C16.0835 17.7504 13.1251 19.7138 10.0001 19.7138Z" fill="#797979"/>
<path d="M10.5751 15.4747C10.2835 15.4747 10.0168 15.2516 9.95848 14.9303C9.89181 14.5645 10.1168 14.2164 10.4585 14.1539C11.3751 13.9755 12.1418 13.1544 12.3085 12.1728C12.3751 11.8069 12.7001 11.5749 13.0418 11.6373C13.3835 11.7087 13.6085 12.0568 13.5418 12.4227C13.2751 13.9665 12.1251 15.1891 10.6918 15.4747C10.6501 15.4658 10.6168 15.4747 10.5751 15.4747Z" fill="#797979"/>
<path d="M1.66686 21.2576C1.50853 21.2576 1.3502 21.1951 1.2252 21.0613C0.983529 20.8025 0.983529 20.3741 1.2252 20.1153L7.4502 13.449C7.69186 13.1902 8.09186 13.1902 8.33353 13.449C8.5752 13.7078 8.5752 14.1361 8.33353 14.3949L2.10853 21.0613C1.98353 21.1951 1.8252 21.2576 1.66686 21.2576Z" fill="#797979"/>
<path d="M12.1083 10.0757C11.9499 10.0757 11.7916 10.0132 11.6666 9.87938C11.4249 9.62058 11.4249 9.19222 11.6666 8.93342L17.8916 2.2671C18.1333 2.0083 18.5333 2.0083 18.7749 2.2671C19.0166 2.5259 19.0166 2.95426 18.7749 3.21306L12.5499 9.87938C12.4249 10.0132 12.2666 10.0757 12.1083 10.0757Z" fill="#797979"/>
</svg>
