<svg width="16" height="12" viewBox="0 0 16 12" fill="none" xmlns="http://www.w3.org/2000/svg">
<path d="M8.33098 11.2967C8.28984 11.2964 8.24915 11.2881 8.21123 11.2722C8.1733 11.2562 8.1389 11.2329 8.10998 11.2037L6.10998 9.18767C6.0795 9.15772 6.05547 9.12185 6.03937 9.08227C6.02327 9.04269 6.01545 9.00022 6.01639 8.9575C6.01733 8.91478 6.027 8.87271 6.04482 8.83387C6.06263 8.79502 6.08821 8.76024 6.11998 8.73167C6.73763 8.20915 7.52047 7.92244 8.32948 7.92244C9.1385 7.92244 9.92134 8.20915 10.539 8.73167C10.5702 8.7605 10.5952 8.79543 10.6124 8.83431C10.6296 8.87318 10.6386 8.91516 10.639 8.95767C10.6397 9.00037 10.6318 9.04279 10.6156 9.08232C10.5995 9.12186 10.5754 9.1577 10.545 9.18767L8.54498 11.2037C8.48861 11.2615 8.41175 11.2949 8.33098 11.2967ZM11.839 7.75867C11.7594 7.75865 11.6829 7.72825 11.625 7.67367C10.7235 6.85573 9.54976 6.40264 8.33248 6.40264C7.11521 6.40264 5.94151 6.85573 5.03998 7.67367C4.9821 7.72825 4.90554 7.75865 4.82598 7.75867C4.78511 7.75885 4.74461 7.75091 4.70683 7.73528C4.66906 7.71966 4.63478 7.69667 4.60598 7.66767L3.45198 6.50067C3.42154 6.4707 3.39736 6.43498 3.38085 6.39558C3.36435 6.35618 3.35585 6.31388 3.35585 6.27117C3.35585 6.22845 3.36435 6.18616 3.38085 6.14675C3.39736 6.10735 3.42154 6.07163 3.45198 6.04167C4.77655 4.8092 6.51871 4.12405 8.32798 4.12405C10.1373 4.12405 11.8794 4.8092 13.204 6.04167C13.2351 6.07125 13.2599 6.10674 13.2771 6.14607C13.2943 6.1854 13.3034 6.22776 13.304 6.27067C13.3042 6.35674 13.2704 6.43941 13.21 6.50067L12.058 7.66767C12.0293 7.69651 11.9951 7.7194 11.9576 7.73501C11.92 7.75063 11.8797 7.75867 11.839 7.75867ZM14.494 5.07367C14.4543 5.07403 14.415 5.06652 14.3783 5.05159C14.3415 5.03666 14.3081 5.01459 14.28 4.98667C12.674 3.45963 10.5426 2.60809 8.32648 2.60809C6.11038 2.60809 3.979 3.45963 2.37298 4.98667C2.34483 5.01459 2.31142 5.03666 2.27469 5.05159C2.23796 5.06652 2.19863 5.07403 2.15898 5.07367C2.11811 5.07385 2.07761 5.06591 2.03983 5.05028C2.00206 5.03466 1.96778 5.01167 1.93898 4.98267L0.787983 3.81667C0.757989 3.78675 0.734192 3.75122 0.717955 3.71209C0.701717 3.67297 0.693359 3.63103 0.693359 3.58867C0.693359 3.54631 0.701717 3.50436 0.717955 3.46524C0.734192 3.42611 0.757989 3.39058 0.787983 3.36067C2.81702 1.41704 5.51824 0.332031 8.32798 0.332031C11.1377 0.332031 13.8389 1.41704 15.868 3.36067C15.8988 3.39023 15.9235 3.42559 15.9407 3.46471C15.9578 3.50383 15.9671 3.54595 15.968 3.58867C15.9684 3.63117 15.9602 3.67333 15.9441 3.71266C15.928 3.75198 15.9041 3.78768 15.874 3.81767L14.717 4.98267C14.6879 5.01208 14.6531 5.03531 14.6148 5.05095C14.5765 5.06659 14.5354 5.07431 14.494 5.07367Z" fill="white"/>
</svg>
