<svg width="16" height="13" viewBox="0 0 16 13" fill="none" xmlns="http://www.w3.org/2000/svg">
<path d="M8.33098 12.3028C8.28984 12.3025 8.24915 12.2936 8.21123 12.2765C8.1733 12.2594 8.1389 12.2345 8.10998 12.2032L6.10998 10.0443C6.0795 10.0122 6.05547 9.97377 6.03937 9.93138C6.02327 9.88899 6.01545 9.84352 6.01639 9.79777C6.01733 9.75202 6.027 9.70696 6.04482 9.66537C6.06263 9.62377 6.08821 9.58653 6.11998 9.55592C6.73763 8.99636 7.52047 8.68932 8.32948 8.68932C9.1385 8.68932 9.92134 8.99636 10.539 9.55592C10.5702 9.5868 10.5952 9.62421 10.6124 9.66584C10.6296 9.70747 10.6386 9.75243 10.639 9.79794C10.6397 9.84368 10.6318 9.8891 10.6156 9.93144C10.5995 9.97378 10.5754 10.0122 10.545 10.0443L8.54498 12.2032C8.48861 12.2651 8.41175 12.3009 8.33098 12.3028ZM11.839 8.51394C11.7594 8.51393 11.6829 8.48137 11.625 8.42291C10.7235 7.54699 9.54976 7.06178 8.33248 7.06178C7.11521 7.06178 5.94151 7.54699 5.03998 8.42291C4.9821 8.48137 4.90554 8.51393 4.82598 8.51394C4.78511 8.51414 4.74461 8.50563 4.70683 8.4889C4.66906 8.47217 4.63478 8.44755 4.60598 8.41649L3.45198 7.16675C3.42154 7.13467 3.39736 7.09641 3.38085 7.05421C3.36435 7.01202 3.35585 6.96673 3.35585 6.92098C3.35585 6.87524 3.36435 6.82995 3.38085 6.78775C3.39736 6.74556 3.42154 6.7073 3.45198 6.67521C4.77655 5.35537 6.51871 4.62164 8.32798 4.62164C10.1373 4.62164 11.8794 5.35537 13.204 6.67521C13.2351 6.70689 13.2599 6.7449 13.2771 6.78702C13.2943 6.82913 13.3034 6.8745 13.304 6.92045C13.3042 7.01262 13.2704 7.10116 13.21 7.16675L12.058 8.41649C12.0293 8.44738 11.9951 8.47189 11.9576 8.48861C11.92 8.50533 11.8797 8.51394 11.839 8.51394ZM14.494 5.63859C14.4543 5.63897 14.415 5.63094 14.3783 5.61494C14.3415 5.59895 14.3081 5.57532 14.28 5.54542C12.674 3.91012 10.5426 2.99821 8.32648 2.99821C6.11038 2.99821 3.979 3.91012 2.37298 5.54542C2.34483 5.57532 2.31142 5.59895 2.27469 5.61494C2.23796 5.63094 2.19863 5.63897 2.15898 5.63859C2.11811 5.63879 2.07761 5.63028 2.03983 5.61354C2.00206 5.59681 1.96778 5.5722 1.93898 5.54113L0.787983 4.29247C0.757989 4.26044 0.734192 4.22238 0.717955 4.18048C0.701717 4.13859 0.693359 4.09367 0.693359 4.04831C0.693359 4.00294 0.701717 3.95803 0.717955 3.91613C0.734192 3.87423 0.757989 3.83617 0.787983 3.80414C2.81702 1.72273 5.51824 0.560791 8.32798 0.560791C11.1377 0.560791 13.8389 1.72273 15.868 3.80414C15.8988 3.8358 15.9235 3.87367 15.9407 3.91556C15.9578 3.95746 15.9671 4.00257 15.968 4.04831C15.9684 4.09383 15.9602 4.13897 15.9441 4.18109C15.928 4.2232 15.9041 4.26143 15.874 4.29354L14.717 5.54113C14.6879 5.57264 14.6531 5.59751 14.6148 5.61426C14.5765 5.631 14.5354 5.63928 14.494 5.63859Z" fill="white"/>
</svg>
